<svg width="1280" height="3000" viewBox="0 0 1280 3000" fill="none" xmlns="http://www.w3.org/2000/svg">
<g clip-path="url(#clip0_1_2)">
<rect width="1280" height="3000" fill="#9F2300"/>
<path d="M450.709 236.729L544.491 2.09684L662.615 99.4358L658.804 125.779L658.597 127.215L659.645 126.211L713.693 74.4472L1104.47 224.318L1104.77 299.447L1104.78 301.067L1105.69 299.725L1126.07 269.574L1276.49 299.331L1197.4 515.456L1070.16 428.57L1072.47 386.318L1072.54 384.913L1071.6 385.955L1016.78 446.326L611.17 285.666L622.641 222.807L622.933 221.207L621.792 222.366L592.775 251.87L450.709 236.729Z" stroke="#FDBECC"/>
<path d="M68.216 143.811L68.0579 145.255L69.0711 144.215L104.566 107.786L373.846 200.52L375.818 251.535L375.881 253.154L376.742 251.781L389.85 230.871L492.632 247.536L444.011 396.115L355.62 340.135L356.194 311.415L356.222 310.007L355.312 311.081L319.498 353.375L39.8951 253.659L46.2035 210.738L46.44 209.129L45.3405 210.327L26.338 231.033L-70.418 224.092L-12.2591 62.6033L70.1795 125.883L68.216 143.811Z" stroke="#FFF3E8"/>
<path d="M192.731 670.698L196.299 616.02L225.492 663.674L562.608 557.654L571.661 509.995L602.129 540.853L718.479 504.262L678.491 470.933L702.751 440.352L663.165 422.198L685.86 386.643L655.481 369.966L664.991 334.186L548.016 368.788L539.756 408.546L513.267 376.437L173.961 475.495L167.835 525.512L135.178 487.692L1.9222 529.599L35.2286 548.635L3.63956 583.708L53.3705 606.322L29.3681 641.194L71.5124 664.008L59.4758 712.605L192.731 670.698Z" stroke="#A9DEEB"/>
<path d="M1026.82 158.006L1049.54 113.669L1056.69 163.974L1376.28 197.222L1401.04 160.722L1415.33 197.472L1525.63 208.947L1504.29 166.698L1535.58 149.937L1509.1 120.496L1540.88 99.0216L1521.55 74.1365L1542.4 47.7135L1432.3 34.3526L1411.05 64.5472L1400.54 28.1892L1081.64 -11.6594L1058.46 27.866L1044.87 -15.4845L918.542 -28.6269L939.462 -0.717045L900.439 17.1443L933.772 53.9703L901.152 74.404L928.083 108.658L900.493 144.864L1026.82 158.006Z" stroke="#F79628"/>
<path d="M742.02 579.297L742.455 580.682L742.965 579.323L761.111 530.945L1049.44 507.278L1072.1 553.929L1072.81 555.386L1073.05 553.783L1076.71 528.978L1179.12 502.519L1194.55 660.585L1089.47 644.595L1078.28 617.643L1077.74 616.343L1077.34 617.692L1061.29 671.655L760.504 693.042L748.85 650.538L748.42 648.97L747.894 650.509L738.67 677.528L645.828 710.573L634.001 536.605L736.526 561.815L742.02 579.297Z" stroke="#A2C9FF"/>
<path d="M656.869 -257.305L655.64 -198.582L622.118 -248.231L266.122 -118.715L258.686 -67.2478L224.595 -98.8498L101.729 -54.1497L146.131 -20.3526L121.601 13.5472L164.855 31.112L142.235 70.2633L175.559 86.6833L167.07 125.451L290.7 82.8518L297.661 39.8826L327.551 73.0129L686.222 -49.1506L690.412 -103.005L727.177 -64.0506L867.895 -115.246L831.325 -134.052L863.492 -173.109L809.162 -194.97L833.214 -233.453L787 -255.887L797.587 -308.5L656.869 -257.305Z" stroke="#9BAB62"/>
</g>
<defs>
<clipPath id="clip0_1_2">
<rect width="1280" height="3000" fill="white"/>
</clipPath>
</defs>
</svg>
