<svg width="1252" height="245" viewBox="0 0 1252 245" fill="none" xmlns="http://www.w3.org/2000/svg">
<g clip-path="url(#clip0_26_193)">
<path d="M195 43.731C174.445 45.5888 153.891 47.4467 133.336 49.3046C112.987 51.1624 92.4323 53.5364 71.6721 56.4264L72.9054 94.8223C77.4274 94.8223 83.6966 95.132 91.7129 95.7513C99.9347 96.1641 108.362 96.8866 116.995 97.9188C125.834 98.9509 134.158 100.396 141.969 102.254C149.78 103.905 155.843 105.97 160.16 108.447C167.354 112.782 172.801 117.53 176.501 122.69C180.406 127.851 183.078 133.425 184.517 139.411C186.162 145.398 186.984 151.797 186.984 158.609C187.189 165.421 187.292 172.646 187.292 180.284C187.292 181.523 187.292 183.277 187.292 185.548C187.292 187.613 187.189 189.78 186.984 192.051C186.778 194.321 186.573 196.489 186.367 198.553C186.162 200.618 185.75 202.269 185.134 203.508C183.489 207.017 180.612 210.836 176.501 214.964C172.39 218.887 167.868 222.602 162.935 226.112C158.002 229.621 152.966 232.717 147.827 235.401C142.894 238.085 138.475 239.839 134.569 240.665C130.253 241.697 125.731 242.316 121.003 242.523C116.481 242.729 111.959 243.039 107.437 243.452C99.6264 243.865 91.8157 244.174 84.0049 244.381C76.3997 244.794 68.6917 245 60.8809 245C59.4421 245 57.5922 245 55.3312 245C53.0701 245 50.7064 244.897 48.2398 244.69C45.7732 244.69 43.4095 244.587 41.1485 244.381C39.093 244.174 37.4486 243.865 36.2153 243.452C29.6378 241.181 24.2936 237.569 20.1827 232.614C16.0718 227.453 12.8858 221.57 10.6248 214.964C10.0082 213.107 9.39152 210.01 8.77488 205.675C8.36378 201.34 7.95269 196.695 7.5416 191.741C7.13051 186.787 6.71941 182.039 6.30832 177.497C6.10277 172.956 6 169.756 6 167.898L77.2219 166.041C76.1941 171.821 75.6803 177.188 75.6803 182.142C75.6803 185.651 76.3997 188.335 77.8385 190.193C79.2773 191.844 81.1272 193.083 83.3883 193.909C85.8548 194.528 88.5269 194.838 91.4046 194.838C94.2822 194.838 97.1599 194.838 100.038 194.838C104.765 194.838 108.773 194.528 112.062 193.909C115.351 193.083 118.023 191.741 120.078 189.883C122.339 188.025 123.984 185.445 125.011 182.142C126.039 178.839 126.553 174.607 126.553 169.447C126.553 165.318 125.834 161.19 124.395 157.061C122.956 152.726 120.181 149.733 116.07 148.081C111.754 146.017 106.512 144.469 100.346 143.437C94.1794 142.198 87.7047 141.269 80.9217 140.65C74.3442 140.03 67.7667 139.721 61.1892 139.721C54.8173 139.514 49.3703 139.411 44.8483 139.411C39.9152 139.411 34.8793 139.514 29.7406 139.721C24.8075 139.721 19.7716 139.824 14.633 140.03L9.39152 4.40609H30.9739C57.9005 4.40609 84.5188 4.09645 110.829 3.47716C137.139 2.65144 163.654 1.82572 190.375 1L195 43.731Z" fill="#FEB629"/>
<path d="M261.9 127.3L250.2 115.6L260.7 9.99998H315.3C320.5 9.99998 324.2 9.59999 326.4 8.8C328.6 7.79999 329.8 6.29998 330 4.29998H339.9L352.2 71.2L342.3 73.9C338.3 63.9 334.3 56.3 330.3 51.1C326.5 45.7 321.9 42 316.5 40C311.1 37.8 304.1 36.7 295.5 36.7H275.4L269.1 102.7C280.1 98.5 289.6 96.4 297.6 96.4C309.8 96.4 321 99.5 331.2 105.7C341.6 111.9 349.9 120.2 356.1 130.6C362.5 140.8 365.7 152.1 365.7 164.5C365.7 186.9 359.1 204.8 345.9 218.2C332.9 231.4 315 238 292.2 238C281 238 271 236 262.2 232C253.6 227.8 246.8 222.2 241.8 215.2C236.8 208.2 234.3 200.2 234.3 191.2C234.3 183.8 236.6 177.6 241.2 172.6C245.8 167.4 251.5 164.7 258.3 164.5C264.7 164.3 269.9 166.2 273.9 170.2C278.1 174 280.2 179.1 280.2 185.5C280.2 195.1 274.1 202.6 261.9 208C269.7 218.2 278.8 223.3 289.2 223.3C301.6 223.3 311.7 218.3 319.5 208.3C327.3 198.1 331.2 184.7 331.2 168.1C331.2 157.5 329.6 148 326.4 139.6C323.2 131 318.8 124.3 313.2 119.5C307.8 114.5 301.6 112 294.6 112C291 112 287 112.7 282.6 114.1C278.4 115.5 274.4 117.4 270.6 119.8C266.8 122 263.9 124.5 261.9 127.3Z" fill="#4B7746"/>
<path d="M424.328 233C419.948 233 416.49 232.307 413.954 230.921C411.648 229.535 409.804 227.919 408.421 226.071C406.807 224.223 406 222.26 406 220.181C406 217.64 407.037 215.908 409.112 214.984C410.496 214.291 411.764 213.945 412.916 213.945C415.683 213.945 417.527 215.331 418.449 218.102C419.602 221.105 420.985 222.837 422.599 223.299C434.126 220.297 444.961 216.947 455.105 213.252C465.479 209.556 476.661 202.858 488.649 193.157C499.023 184.612 507.207 175.142 513.201 164.748C519.195 154.354 522.193 145.231 522.193 137.378C522.193 131.142 519.887 126.176 515.276 122.48C510.665 118.785 504.671 116.013 497.294 114.165C489.917 112.087 482.194 110.585 474.125 109.661C466.056 108.738 458.448 107.929 451.301 107.236C444.154 106.543 438.622 105.735 434.702 104.811C430.092 102.732 427.786 98.4593 427.786 91.9921C427.786 86.6798 429.169 80.79 431.936 74.3228C434.702 67.6247 437.93 61.6194 441.619 56.3071C445.307 51.2257 449.687 46.1443 454.759 41.063C459.831 35.7506 464.327 31.3622 468.246 27.8976C472.396 24.2021 474.471 22.3543 474.471 22.3543C478.159 19.8136 484.153 18.1968 492.453 17.5039C500.983 16.5801 510.204 16.0026 520.118 15.7716C530.031 15.5407 538.791 15.1942 546.399 14.7323C551.932 14.0394 557.811 13.5774 564.036 13.3465C570.26 13.1155 575.793 13 580.635 13C585.706 13 588.819 13 589.971 13C593.891 13 596.542 14.1548 597.925 16.4646C599.308 18.5433 600 20.853 600 23.3937C600 26.3963 599.308 28.8215 597.925 30.6693C597.003 31.3622 595.85 31.7086 594.467 31.7086C591.701 31.7086 588.358 30.7848 584.438 28.937C580.75 26.8583 576.254 25.8189 570.952 25.8189C569.569 25.8189 566.226 25.9344 560.923 26.1653C555.851 26.3963 549.742 26.8583 542.595 27.5512C535.679 28.2441 528.648 29.168 521.501 30.3228C514.354 31.4777 508.13 32.979 502.827 34.8268C496.372 38.0604 491.07 41.4094 486.92 44.874C482.77 48.1076 478.044 52.8425 472.742 59.0787C465.825 67.1627 461.445 73.6299 459.601 78.4803C457.756 83.3307 456.604 86.6798 456.143 88.5276C455.682 89.9134 455.451 91.4147 455.451 93.0315C455.451 94.1863 456.027 95.3412 457.18 96.4961C458.333 97.6509 460.869 98.3438 464.788 98.5748C468.938 98.8058 474.816 99.1522 482.424 99.6142C490.263 100.076 498.332 100.885 506.631 102.039C514.93 103.194 521.962 105.157 527.725 107.929C539.022 112.318 547.091 117.399 551.932 123.173C556.774 128.717 559.194 134.722 559.194 141.189C559.194 150.428 556.197 159.551 550.203 168.559C544.209 177.336 536.255 185.651 526.342 193.504C516.66 201.357 505.824 208.171 493.836 213.945C482.078 219.95 470.09 224.57 457.872 227.803C445.884 231.268 434.702 233 424.328 233Z" fill="#FDBECC"/>
<path d="M655.933 121.841V123.497H644V121.841V4H760.011V16.2476H656.264V85.7608C666.871 71.8581 683.444 63.2517 703 63.2517C736.809 63.2517 762 89.0709 762 123.497V181.755C762 216.181 736.809 242 703 242C669.191 242 644 216.181 644 181.755H655.933C656.264 210.223 675.157 229.421 703 229.421C730.843 229.421 749.736 210.223 749.736 181.755V123.497C749.736 95.0292 730.843 75.4993 703 75.4993C676.815 75.4993 658.916 92.3811 656.264 117.538L655.933 121.841Z" fill="#A9DEEB"/>
<path d="M966 163.912C966 166.854 966 169.004 966 170.362C966 183.943 965.887 191.865 965.661 194.128C965.435 196.392 964.532 200.126 962.951 205.332C956.176 229.777 936.867 242 905.024 242C880.86 242 863.696 234.983 853.534 220.95C848.565 214.612 845.178 206.917 843.371 197.863C841.79 188.583 841 176.813 841 162.554V156.782H893.507V164.251L894.184 190.054C894.184 200.692 897.685 206.011 904.686 206.011C910.783 206.011 913.832 197.976 913.832 181.906C913.832 179.416 913.832 177.153 913.832 175.116C913.832 172.852 913.832 171.041 913.832 169.683V123.509C913.832 115.361 913.154 109.589 911.799 106.194C910.444 102.799 907.622 101.101 903.331 101.101C899.717 101.101 897.12 102.799 895.539 106.194C894.184 109.589 893.507 114.795 893.507 121.812H841.678L843.71 4H955.499V41.3466H891.474V81.0699C895.313 76.0904 899.266 72.3557 903.331 69.8659C908.525 66.6971 914.622 65.1127 921.623 65.1127C938.335 65.1127 950.079 70.5449 956.854 81.4094C962.951 91.3685 966 107.665 966 130.3V163.912Z" fill="#416EB3"/>
<path d="M1180.63 5.37873C1181.39 5.87952 1181.76 6.6307 1181.76 7.63227C1182.02 8.38344 1182.14 9.00943 1182.14 9.51022C1181.39 11.7638 1180.88 14.0173 1180.63 16.2708C1180.63 18.5244 1180.63 20.6527 1180.63 22.6558C1179.87 23.407 1178.74 24.1582 1177.23 24.9094C1175.97 25.4102 1174.58 25.6606 1173.07 25.6606H1157.18C1153.4 26.1613 1150.63 26.4117 1148.87 26.4117C1147.35 26.4117 1145.97 26.4117 1144.71 26.4117C1143.45 26.4117 1141.93 26.4117 1140.17 26.4117C1138.66 26.1613 1136.13 25.9109 1132.61 25.6606H1118.24C1115.21 25.6606 1111.93 25.911 1108.4 26.4117C1104.87 26.9125 1101.34 27.1629 1097.82 27.1629C1097.06 27.1629 1095.92 27.2881 1094.41 27.5385C1093.15 27.5385 1091.89 27.7889 1090.63 28.2897V83.1257C1090.63 83.8769 1090.63 84.8785 1090.63 86.1304C1090.88 87.3824 1091.26 88.384 1091.76 89.1351C1093.28 89.1351 1094.54 89.01 1095.55 88.7596C1096.55 88.5092 1097.82 88.384 1099.33 88.384H1106.51C1110.04 87.6328 1114.45 87.6328 1119.75 88.384C1125.04 89.1352 1130.21 90.2619 1135.25 91.7643C1140.29 93.2666 1144.71 94.8942 1148.49 96.6469C1152.52 98.3997 1154.92 99.7768 1155.67 100.778C1159.45 103.032 1162.73 105.285 1165.5 107.539C1168.53 109.542 1171.05 112.046 1173.07 115.051C1176.09 118.556 1178.74 122.187 1181.01 125.943C1183.28 129.448 1185.55 132.954 1187.82 136.459C1188.57 137.962 1189.08 139.214 1189.33 140.215C1189.58 141.217 1190.08 142.469 1190.84 143.971C1192.35 146.225 1193.11 148.729 1193.11 151.483C1193.36 154.237 1193.99 156.992 1195 159.746C1195 163.251 1194.62 166.882 1193.87 170.638C1193.36 174.144 1192.73 177.649 1191.97 181.155C1191.97 181.906 1191.6 182.907 1190.84 184.159C1190.34 185.411 1190.08 186.413 1190.08 187.164C1188.82 191.421 1187.18 195.803 1185.17 200.31C1183.15 204.817 1180.63 208.573 1177.61 211.577C1176.09 213.831 1174.58 215.834 1173.07 217.587C1171.81 219.089 1170.42 220.967 1168.91 223.221C1167.39 224.473 1166.26 225.349 1165.5 225.85C1164.75 226.601 1163.61 227.352 1162.1 228.103C1160.59 228.854 1158.95 229.606 1157.18 230.357C1155.42 231.108 1153.28 232.61 1150.76 234.864C1149.24 236.116 1146.97 237.243 1143.95 238.244C1140.92 239.496 1137.65 240.247 1134.12 240.498C1133.11 240.748 1132.35 240.873 1131.85 240.873C1131.34 241.124 1130.71 241.249 1129.96 241.249C1129.2 241.249 1128.19 241.124 1126.93 240.873C1125.67 240.873 1123.91 240.873 1121.64 240.873C1118.11 241.624 1114.58 242 1111.05 242C1107.77 242 1104.24 242 1100.46 242C1099.2 242 1097.94 241.875 1096.68 241.624C1095.42 241.624 1094.16 241.499 1092.9 241.249C1091.64 240.998 1090.38 240.748 1089.12 240.498C1085.59 240.498 1082.82 240.122 1080.8 239.371C1078.78 238.62 1076.76 238.244 1074.75 238.244C1072.48 238.745 1070.21 238.369 1067.94 237.117C1065.67 236.116 1063.53 235.365 1061.51 234.864C1059.24 234.113 1056.97 233.236 1054.71 232.235C1052.69 231.484 1050.55 230.357 1048.28 228.854C1046.26 227.352 1043.87 225.85 1041.09 224.347C1038.32 222.845 1035.92 220.967 1033.91 218.713L1029.37 214.582C1027.35 212.328 1025.21 210.2 1022.94 208.197C1020.92 206.194 1019.29 204.441 1018.03 202.939C1017.27 202.188 1016.76 201.436 1016.51 200.685C1016.26 199.934 1015.76 199.308 1015 198.807C1015 197.555 1015.5 196.554 1016.51 195.803C1017.77 195.302 1019.16 194.3 1020.67 192.798C1022.18 191.045 1023.32 189.793 1024.08 189.042C1025.59 187.79 1026.97 187.039 1028.24 186.788C1029.5 186.538 1030.88 185.662 1032.39 184.159C1033.91 184.91 1035.29 185.912 1036.55 187.164C1038.07 188.416 1039.2 189.167 1039.96 189.418C1041.22 190.669 1042.35 191.921 1043.36 193.173C1044.37 194.425 1045.38 195.552 1046.39 196.554C1048.66 198.807 1051.68 200.936 1055.46 202.939C1056.97 203.69 1058.49 204.691 1060 205.943C1061.51 207.195 1062.9 208.072 1064.16 208.573C1064.92 209.324 1065.67 209.825 1066.43 210.075C1067.18 210.325 1067.94 210.826 1068.7 211.577C1071.47 213.08 1074.37 214.332 1077.39 215.333C1080.67 216.084 1084.08 216.71 1087.61 217.211C1089.37 217.462 1090.63 217.587 1091.39 217.587C1092.14 217.336 1093.28 217.211 1094.79 217.211C1098.32 217.211 1101.97 217.211 1105.76 217.211C1109.79 217.211 1113.45 216.335 1116.72 214.582C1118.24 213.831 1120.5 212.328 1123.53 210.075C1126.55 207.821 1128.57 205.943 1129.58 204.441C1132.35 200.435 1135.13 196.804 1137.9 193.549C1140.67 190.043 1142.69 186.538 1143.95 183.032C1143.95 182.281 1144.08 181.029 1144.33 179.277C1144.58 177.524 1145.08 176.272 1145.84 175.521C1147.1 169.511 1147.1 163.251 1145.84 156.741C1145.84 155.99 1145.59 155.114 1145.08 154.112C1144.58 152.86 1144.33 151.859 1144.33 151.107C1143.57 147.602 1142.18 144.347 1140.17 141.342C1138.15 138.337 1136.13 135.833 1134.12 133.83C1131.85 130.325 1128.95 127.445 1125.42 125.192C1122.14 122.688 1118.74 120.685 1115.21 119.182C1112.44 117.93 1109.79 116.929 1107.27 116.178C1104.75 115.426 1102.1 115.051 1099.33 115.051C1097.06 114.3 1094.79 113.924 1092.52 113.924C1090.5 113.674 1088.36 113.548 1086.09 113.548C1081.05 113.548 1076.51 113.674 1072.48 113.924C1068.7 113.924 1064.54 113.298 1060 112.046H1053.95C1052.44 112.046 1050.92 112.171 1049.41 112.422C1048.15 112.422 1046.89 111.796 1045.63 110.544C1045.13 110.293 1044.87 109.417 1044.87 107.915C1044.87 106.162 1044.87 104.284 1044.87 102.281C1045.13 100.027 1045.25 97.7737 1045.25 95.5202C1045.5 93.0162 1045.63 90.8879 1045.63 89.1351C1046.13 86.1304 1046.26 83.2509 1046.01 80.4966C1045.76 77.4919 1045.63 74.6124 1045.63 71.858C1045.63 70.3557 1045.38 68.8533 1044.87 67.351C1044.37 65.8486 1044.12 64.4715 1044.12 63.2195C1043.36 58.2116 1043.11 54.3305 1043.36 51.5762C1043.87 48.5715 1044.12 45.692 1044.12 42.9377C1044.12 39.933 1043.87 36.6778 1043.36 33.1723C1043.11 29.6668 1043.36 26.1613 1044.12 22.6558C1044.62 19.9015 1045 17.8984 1045.25 16.6464C1045.5 15.1441 1045.88 13.2661 1046.39 11.0126C1047.14 9.76062 1047.27 8.38346 1046.76 6.88109C1046.26 5.37874 1046.51 4.25196 1047.52 3.50078C1048.03 3 1048.91 2.87481 1050.17 3.1252C1051.43 3.1252 1052.31 3.1252 1052.82 3.1252C1055.59 3.1252 1058.61 3.25039 1061.89 3.50078C1065.42 3.75118 1068.7 3.87639 1071.72 3.87639C1074.5 3.62599 1077.27 3.87637 1080.04 4.62756C1083.07 5.12834 1086.09 5.37873 1089.12 5.37873C1091.89 5.37873 1094.66 5.50392 1097.44 5.75433C1100.46 6.00472 1103.49 6.12991 1106.51 6.12991C1108.53 6.63069 1110.67 6.75589 1112.94 6.5055C1115.21 6.00473 1117.35 5.50394 1119.37 5.00314C1122.14 4.50236 1125.55 4.37717 1129.58 4.62756C1133.87 4.87795 1137.77 4.62756 1141.3 3.87639H1167.39C1169.66 3.87639 1171.81 4.12678 1173.82 4.62756C1176.09 5.12834 1178.36 5.37873 1180.63 5.37873Z" fill="#9BAB62"/>
</g>
<defs>
<clipPath id="clip0_26_193">
<rect width="1252" height="245" fill="white"/>
</clipPath>
</defs>
</svg>
