<svg width="1104" height="245" viewBox="0 0 1104 245" fill="none" xmlns="http://www.w3.org/2000/svg">
<g clip-path="url(#clip0_25_137)">
<path d="M178 167.457C177.59 179.742 177.283 192.026 177.078 204.311C176.873 216.596 176.463 228.88 175.848 241.165L15.0639 247C14.0391 231.439 12.8094 215.981 11.3748 200.625C10.1451 185.065 8.91537 169.402 7.68567 153.637C15.8837 150.566 24.2867 147.187 32.8946 143.502C41.5026 139.612 49.9056 135.312 58.1036 130.603C66.3017 125.894 74.1923 120.775 81.7755 115.247C89.3587 109.719 96.1221 103.679 102.066 97.1273C105.14 93.6467 107.804 90.2684 110.059 86.9925C112.518 83.5119 113.748 79.417 113.748 74.7079C113.748 63.6517 111.493 56.3833 106.984 52.9026C102.68 49.2172 95.7121 47.3745 86.0794 47.3745C81.9804 47.3745 77.7789 47.4769 73.475 47.6816C69.3759 47.6816 65.4819 47.9888 61.7927 48.603C55.8492 49.6267 52.16 51.5718 50.7254 54.4382C49.4957 57.3046 48.8808 61.5019 48.8808 67.03C48.8808 68.6679 48.8808 70.4082 48.8808 72.2509C49.0858 74.0936 49.2907 75.9363 49.4957 77.779L1.84456 84.2285C0.614853 75.015 0 65.9039 0 56.8951C0 54.6429 0.102476 51.367 0.307427 47.0674C0.717329 42.7678 1.33218 38.3658 2.15199 33.8614C3.17674 29.3571 4.40645 25.1598 5.84111 21.2697C7.27576 17.3795 9.2228 14.7179 11.6822 13.2846C15.3713 11.0325 21.2124 9.08739 29.2055 7.44944C37.1986 5.81149 45.7041 4.58302 54.7219 3.76404C63.9447 2.74032 72.7576 2.02372 81.1606 1.61423C89.5636 1.20474 96.0196 1 100.528 1C108.317 1 115.592 1.20474 122.356 1.61423C129.324 2.02372 135.575 3.35456 141.109 5.60674C146.847 7.65418 151.766 11.1348 155.865 16.0487C159.964 20.7578 163.039 27.412 165.088 36.0112C166.113 40.7203 166.728 45.5318 166.933 50.4457C167.138 55.3595 167.24 60.171 167.24 64.8801C167.24 66.7228 167.138 69.1798 166.933 72.2509C166.933 75.3221 166.83 78.4956 166.625 81.7715C166.42 85.0474 166.01 88.1186 165.396 90.985C164.781 93.8514 164.063 96.206 163.244 98.0487C162.014 100.301 159.554 103.27 155.865 106.955C152.381 110.436 148.487 114.019 144.183 117.704C139.879 121.185 135.678 124.563 131.579 127.839C127.48 130.91 124.303 133.265 122.048 134.903C118.564 137.36 114.875 139.714 110.981 141.966C107.292 144.014 103.705 146.164 100.221 148.416C93.4577 152.306 86.5918 156.196 79.6235 160.086C72.8601 163.772 65.9942 167.457 59.0259 171.142C98.5815 170.528 138.239 169.3 178 167.457Z" fill="#FDBECC"/>
<path d="M316 3V130.569H235.314V158.917H316V245H218V117.086H298.686V16.4829H220.77V3H316ZM235.314 243.617H218H235.314Z" fill="#F79628"/>
<path d="M408.482 85.2937L380.887 91.8919C378.802 85.2937 377.576 78.4512 377.208 71.3643C377.208 70.7533 377.146 69.9591 377.024 68.9816C377.024 68.0041 377.024 67.271 377.024 66.7822C377.024 47.1099 383.401 31.592 396.156 20.2285C408.912 8.74284 424.794 3 443.804 3C488.938 3 511.505 26.0936 511.505 72.2807C511.505 91.342 501.754 111.198 482.254 131.847C477.102 136.979 468.027 144.983 455.026 155.857C442.026 166.732 432.337 175.285 425.959 181.517C419.95 187.382 415.412 193.308 412.346 199.295C409.279 205.16 407.624 210.048 407.378 213.958L515 213.591V242H375.368C375.368 240.167 375.307 237.357 375.184 233.569C375.061 229.659 375 226.665 375 224.588C375 218.845 375.368 213.897 376.104 209.742C379.415 191.658 389.963 174.369 407.746 157.873C414.247 151.886 423.384 144.249 435.158 134.963C446.932 125.555 455.21 118.529 459.993 113.886C466.862 107.41 472.258 100.384 476.183 92.8083C480.23 85.1104 482.254 78.3901 482.254 72.6472C482.254 60.9172 479.187 51.1421 473.055 43.3221C467.046 35.502 457.786 31.592 445.276 31.592C432.889 31.592 423.261 35.0744 416.393 42.0391C409.525 49.0038 406.091 59.5731 406.091 73.7469C406.091 77.046 406.888 80.8949 408.482 85.2937Z" fill="#4A76B2"/>
<path d="M671.575 3L675 107.531L620.396 185.881L675 188.727L670.053 239L550 228.376L628.577 105.254L629.338 44.3569L566.362 66.1736L554.947 4.13826L671.575 3Z" fill="#4B7746"/>
<path d="M802.689 3C826.443 3 845.266 9.36902 859.16 22.107C873.053 34.8451 880 49.0357 880 64.6789C880 80.3221 874.846 93.954 864.538 105.575C854.454 117.195 842.129 127.252 827.563 135.744L784.538 159.208C770.196 166.807 757.871 175.634 747.563 185.69C737.255 195.523 732.101 206.138 732.101 217.535V225.916C732.101 229.268 733.782 230.944 737.143 230.944H864.874C868.235 230.944 869.916 229.268 869.916 225.916V189.042C869.916 185.69 871.597 184.014 874.958 184.014C878.319 184.014 880 185.69 880 189.042V235.972C880 239.324 878.319 241 874.958 241H727.059C723.697 241 722.017 239.324 722.017 235.972V217.535C722.017 199.657 732.773 182.45 754.286 165.913C760.56 160.996 767.283 156.638 774.454 152.839L817.479 129.039C831.821 121.441 844.146 112.391 854.454 101.887C864.762 91.1606 869.916 79.093 869.916 65.6845C869.916 52.0526 863.866 39.8732 851.765 29.1465C839.664 18.4197 823.305 13.0564 802.689 13.0564C789.02 13.0564 775.686 15.6263 762.689 20.7662C749.916 25.9061 738.711 33.5042 729.076 43.5606C726.611 46.0188 724.482 46.354 722.689 44.5662C720.896 42.7784 720 41.3258 720 40.2085C720 39.0911 720.672 37.862 722.017 36.5211C744.874 14.1737 771.765 3 802.689 3Z" fill="#A2C9FF"/>
<path d="M1021.21 216C1000.19 216 977.461 204.921 953.022 182.764C938.847 189.094 926.505 192.26 915.996 192.26C901.332 192.26 894 186.294 894 174.363C894 167.059 896.933 161.093 902.798 156.467C908.419 151.597 915.018 149.162 922.594 149.162C929.682 149.162 943.857 156.102 965.119 169.98C974.651 164.38 983.816 157.806 992.614 150.258C1001.41 142.71 1009.6 134.066 1017.18 124.326C1034.77 101.925 1043.57 81.2285 1043.57 62.2363C1043.57 46.166 1034.41 38.1309 1016.08 38.1309C1006.3 38.1309 994.447 40.444 980.516 45.0703C973.673 47.2617 967.441 49.6966 961.82 52.375C956.199 54.8099 951.311 57.3665 947.156 60.0449C937.136 67.1061 932.126 73.0716 932.126 77.9414C932.126 82.3242 935.792 84.5156 943.124 84.5156C948.745 84.5156 956.443 81.2285 966.219 74.6543C975.995 67.8366 980.15 64.4277 978.683 64.4277C979.661 64.4277 980.15 65.5234 980.15 67.7148C980.15 69.4193 978.928 71.3672 976.484 73.5586C973.551 75.263 970.985 77.0892 968.785 79.0371L953.755 91.0899C947.401 94.4987 940.802 96.2031 933.959 96.2031C929.56 96.2031 925.894 94.7422 922.961 91.8203C920.028 88.8984 918.562 85.3678 918.562 81.2285C918.562 73.1934 922.717 65.8887 931.026 59.3145L953.755 45.8008C963.286 40.2005 973.673 36.0612 984.915 33.3828C996.158 30.4609 1008.26 29 1021.21 29C1049.07 29 1063 38.9831 1063 58.9492C1063 78.6719 1052 100.829 1030.01 125.422C1012.65 144.901 992.858 161.093 970.618 173.998C998.235 191.529 1017.91 200.295 1029.64 200.295C1046.01 200.295 1054.2 195.912 1054.2 187.146C1054.2 185.442 1053.71 183.494 1052.74 181.303C1051.51 178.381 1050.9 176.555 1050.9 175.824C1050.9 173.633 1052 172.537 1054.2 172.537C1055.91 172.537 1057.62 174.485 1059.33 178.381C1060.31 181.059 1060.8 183.738 1060.8 186.416C1060.8 195.425 1056.16 202.73 1046.87 208.33C1038.8 213.443 1030.25 216 1021.21 216ZM923.328 183.129C927.238 183.129 931.148 182.764 935.059 182.033C939.213 181.059 943.49 179.72 947.889 178.016C933.959 164.867 925.527 158.293 922.594 158.293C915.018 158.293 911.23 162.798 911.23 171.807C911.23 179.355 915.262 183.129 923.328 183.129Z" fill="#9BAB62"/>
</g>
<defs>
<clipPath id="clip0_25_137">
<rect width="1104" height="245" fill="white"/>
</clipPath>
</defs>
</svg>
