<svg width="1104" height="245" viewBox="0 0 1104 245" fill="none" xmlns="http://www.w3.org/2000/svg">
<g clip-path="url(#clip0_26_161)">
<path d="M55.4823 88.2937L27.887 94.8919C25.802 88.2937 24.5756 81.4512 24.2076 74.3643C24.2076 73.7533 24.1463 72.9591 24.0237 71.9816C24.0237 71.0041 24.0237 70.271 24.0237 69.7822C24.0237 50.1099 30.4012 34.592 43.1564 23.2285C55.9115 11.7428 71.7941 6 90.8042 6C135.938 6 158.505 29.0936 158.505 75.2807C158.505 94.342 148.754 114.198 129.254 134.847C124.102 139.979 115.027 147.983 102.026 158.857C89.0258 169.732 79.3368 178.285 72.9593 184.517C66.9496 190.382 62.4117 196.308 59.3456 202.295C56.2795 208.16 54.6237 213.048 54.3784 216.958L162 216.591V245H22.3679C22.3679 243.167 22.3066 240.357 22.184 236.569C22.0613 232.659 22 229.665 22 227.588C22 221.845 22.3679 216.897 23.1038 212.742C26.4152 194.658 36.9628 177.369 54.7464 160.873C61.2466 154.886 70.3837 147.249 82.1577 137.963C93.9317 128.555 102.21 121.529 106.993 116.886C113.862 110.41 119.258 103.384 123.183 95.8083C127.23 88.1104 129.254 81.3901 129.254 75.6472C129.254 63.9172 126.187 54.1421 120.055 46.3221C114.046 38.502 104.786 34.592 92.276 34.592C79.8887 34.592 70.2611 38.0744 63.3929 45.0391C56.5247 52.0038 53.0907 62.5731 53.0907 76.7469C53.0907 80.046 53.8879 83.8949 55.4823 88.2937Z" fill="#A9DEEB"/>
<path d="M1037.58 5L1041 109.531L986.396 187.881L1041 190.727L1036.05 241L916 230.376L994.577 107.254L995.338 46.3569L932.362 68.1736L920.947 6.13826L1037.58 5Z" fill="#4B7746"/>
<path d="M309.208 216C288.19 216 265.461 204.921 241.022 182.764C226.847 189.094 214.505 192.26 203.996 192.26C189.332 192.26 182 186.294 182 174.363C182 167.059 184.933 161.093 190.798 156.467C196.419 151.597 203.018 149.162 210.594 149.162C217.682 149.162 231.857 156.102 253.119 169.98C262.651 164.38 271.816 157.806 280.614 150.258C289.412 142.71 297.599 134.066 305.176 124.326C322.772 101.925 331.57 81.2285 331.57 62.2363C331.57 46.166 322.406 38.1309 304.076 38.1309C294.3 38.1309 282.447 40.444 268.516 45.0703C261.673 47.2617 255.441 49.6966 249.82 52.375C244.199 54.8099 239.311 57.3665 235.156 60.0449C225.136 67.1061 220.126 73.0716 220.126 77.9414C220.126 82.3242 223.792 84.5156 231.124 84.5156C236.745 84.5156 244.443 81.2285 254.219 74.6543C263.995 67.8366 268.15 64.4277 266.683 64.4277C267.661 64.4277 268.15 65.5234 268.15 67.7148C268.15 69.4193 266.928 71.3672 264.484 73.5586C261.551 75.263 258.985 77.0892 256.785 79.0371L241.755 91.0899C235.401 94.4987 228.802 96.2031 221.959 96.2031C217.56 96.2031 213.894 94.7422 210.961 91.8203C208.028 88.8984 206.562 85.3678 206.562 81.2285C206.562 73.1934 210.717 65.8887 219.026 59.3145L241.755 45.8008C251.286 40.2005 261.673 36.0612 272.915 33.3828C284.158 30.4609 296.255 29 309.208 29C337.069 29 351 38.9831 351 58.9492C351 78.6719 340.002 100.829 318.007 125.422C300.654 144.901 280.858 161.093 258.618 173.998C286.235 191.529 305.909 200.295 317.64 200.295C334.014 200.295 342.202 195.912 342.202 187.146C342.202 185.442 341.713 183.494 340.735 181.303C339.513 178.381 338.902 176.555 338.902 175.824C338.902 173.633 340.002 172.537 342.202 172.537C343.912 172.537 345.623 174.485 347.334 178.381C348.312 181.059 348.8 183.738 348.8 186.416C348.8 195.425 344.157 202.73 334.87 208.33C326.805 213.443 318.251 216 309.208 216ZM211.328 183.129C215.238 183.129 219.148 182.764 223.059 182.033C227.213 181.059 231.49 179.72 235.889 178.016C221.959 164.867 213.527 158.293 210.594 158.293C203.018 158.293 199.23 162.798 199.23 171.807C199.23 179.355 203.262 183.129 211.328 183.129Z" fill="#F79628"/>
<path d="M712 165.457C711.59 177.742 711.283 190.026 711.078 202.311C710.873 214.596 710.463 226.88 709.848 239.165L549.064 245C548.039 229.439 546.809 213.981 545.375 198.625C544.145 183.065 542.915 167.402 541.686 151.637C549.884 148.566 558.287 145.187 566.895 141.502C575.503 137.612 583.906 133.312 592.104 128.603C600.302 123.894 608.192 118.775 615.775 113.247C623.359 107.719 630.122 101.679 636.066 95.1273C639.14 91.6467 641.804 88.2684 644.059 84.9925C646.518 81.5119 647.748 77.417 647.748 72.7079C647.748 61.6517 645.493 54.3833 640.984 50.9026C636.68 47.2172 629.712 45.3745 620.079 45.3745C615.98 45.3745 611.779 45.4769 607.475 45.6816C603.376 45.6816 599.482 45.9888 595.793 46.603C589.849 47.6267 586.16 49.5718 584.725 52.4382C583.496 55.3046 582.881 59.5019 582.881 65.03C582.881 66.6679 582.881 68.4082 582.881 70.2509C583.086 72.0936 583.291 73.9363 583.496 75.779L535.845 82.2285C534.615 73.015 534 63.9039 534 54.8951C534 52.6429 534.102 49.367 534.307 45.0674C534.717 40.7678 535.332 36.3658 536.152 31.8614C537.177 27.3571 538.406 23.1598 539.841 19.2697C541.276 15.3795 543.223 12.7179 545.682 11.2846C549.371 9.03246 555.212 7.08739 563.206 5.44944C571.199 3.81149 579.704 2.58302 588.722 1.76404C597.945 0.740325 606.758 0.0237203 615.161 -0.385768C623.564 -0.795256 630.02 -1 634.528 -1C642.317 -1 649.592 -0.795256 656.356 -0.385768C663.324 0.0237203 669.575 1.35456 675.109 3.60674C680.847 5.65418 685.766 9.13483 689.865 14.0487C693.964 18.7578 697.039 25.412 699.088 34.0112C700.113 38.7203 700.728 43.5318 700.933 48.4457C701.138 53.3595 701.24 58.171 701.24 62.8801C701.24 64.7228 701.138 67.1798 700.933 70.2509C700.933 73.3221 700.83 76.4956 700.625 79.7715C700.42 83.0474 700.01 86.1186 699.396 88.985C698.781 91.8514 698.063 94.206 697.244 96.0487C696.014 98.3009 693.554 101.27 689.865 104.955C686.381 108.436 682.487 112.019 678.183 115.704C673.879 119.185 669.678 122.563 665.579 125.839C661.48 128.91 658.303 131.265 656.048 132.903C652.564 135.36 648.875 137.714 644.981 139.966C641.292 142.014 637.705 144.164 634.221 146.416C627.458 150.306 620.592 154.196 613.623 158.086C606.86 161.772 599.994 165.457 593.026 169.142C632.581 168.528 672.239 167.3 712 165.457Z" fill="#9BAB62"/>
<path d="M492 3V130.569H411.314V158.917H492V245H394V117.086H474.686V16.4829H396.77V3H492ZM411.314 243.617H394H411.314Z" fill="#FDBECC"/>
<path d="M803.689 4C827.443 4 846.266 10.369 860.16 23.107C874.053 35.8451 881 50.0357 881 65.6789C881 81.3221 875.846 94.954 865.538 106.575C855.454 118.195 843.129 128.252 828.563 136.744L785.538 160.208C771.196 167.807 758.871 176.634 748.563 186.69C738.255 196.523 733.101 207.138 733.101 218.535V226.916C733.101 230.268 734.782 231.944 738.143 231.944H865.874C869.235 231.944 870.916 230.268 870.916 226.916V190.042C870.916 186.69 872.597 185.014 875.958 185.014C879.319 185.014 881 186.69 881 190.042V236.972C881 240.324 879.319 242 875.958 242H728.059C724.697 242 723.017 240.324 723.017 236.972V218.535C723.017 200.657 733.773 183.45 755.286 166.913C761.56 161.996 768.283 157.638 775.454 153.839L818.479 130.039C832.821 122.441 845.146 113.391 855.454 102.887C865.762 92.1606 870.916 80.093 870.916 66.6845C870.916 53.0526 864.866 40.8732 852.765 30.1465C840.664 19.4197 824.305 14.0564 803.689 14.0564C790.02 14.0564 776.686 16.6263 763.689 21.7662C750.916 26.9061 739.711 34.5042 730.076 44.5606C727.611 47.0188 725.482 47.354 723.689 45.5662C721.896 43.7784 721 42.3258 721 41.2085C721 40.0911 721.672 38.862 723.017 37.5211C745.874 15.1737 772.765 4 803.689 4Z" fill="#4A76B2"/>
</g>
<defs>
<clipPath id="clip0_26_161">
<rect width="1104" height="245" fill="white"/>
</clipPath>
</defs>
</svg>
