<svg width="1252" height="245" viewBox="0 0 1252 245" fill="none" xmlns="http://www.w3.org/2000/svg">
<g clip-path="url(#clip0_26_169)">
<path d="M199 91.4859C199 95.2302 199 100.327 199 106.775C199 113.015 198.896 120.088 198.687 127.992C198.479 135.689 198.166 143.697 197.75 152.018C197.333 160.13 196.708 167.931 195.874 175.419C195.04 182.7 193.894 189.148 192.435 194.765C191.185 200.381 189.622 204.437 187.746 206.934C185.246 209.846 182.328 213.07 178.994 216.606C175.868 219.934 172.429 223.263 168.678 226.591C164.927 229.711 161.071 232.519 157.112 235.015C153.36 237.512 149.609 239.28 145.858 240.32C142.524 241.36 137.835 242.192 131.791 242.816C125.956 243.44 119.808 243.856 113.348 244.064C107.096 244.48 100.948 244.688 94.9043 244.688C88.8607 244.896 83.9633 245 80.2121 245C78.3365 245 75.6273 245 72.0845 245C68.7501 245 65.2073 244.792 61.4561 244.376C57.7049 244.168 54.1621 243.856 50.8278 243.44C47.4934 243.024 45.0968 242.296 43.638 241.256C39.0532 238.344 34.781 234.911 30.8214 230.959C27.0702 226.799 23.7358 222.327 20.8182 217.542C18.109 213.174 16.025 208.182 14.5662 202.565C13.1074 196.949 11.857 191.54 10.815 186.34C9.77299 180.516 8.73099 174.171 7.689 167.307C6.8554 160.234 6.0218 153.058 5.1882 145.777C4.563 138.497 4.042 131.321 3.6252 124.248C3.2084 117.176 3 110.519 3 104.279C3 100.743 3.2084 95.2302 3.6252 87.7417C4.042 80.0452 4.6672 72.1407 5.5008 64.0281C6.5428 55.9156 7.7932 48.3231 9.25199 41.2506C10.7108 33.9702 12.5864 28.9778 14.8788 26.2737C17.1712 23.3615 20.714 20.7613 25.5072 18.4731C30.3004 15.977 35.7188 13.7928 41.7624 11.9207C47.806 10.0486 54.1621 8.48849 60.8309 7.24041C67.7081 5.78431 74.3769 4.64024 80.8373 3.80818C87.2977 2.76812 93.2371 2.04007 98.6555 1.62404C104.074 1.20801 108.45 1 111.785 1C115.327 1 119.287 1.10401 123.663 1.31202C128.04 1.31202 132.416 1.52003 136.793 1.93606C141.377 2.35209 145.754 2.97613 149.922 3.80818C154.09 4.64024 157.841 5.78431 161.175 7.24041C163.885 8.48849 167.115 10.4646 170.866 13.1688C174.617 15.665 178.16 18.4731 181.494 21.5934C185.037 24.7136 188.163 27.9378 190.872 31.266C193.79 34.5942 195.77 37.5064 196.812 40.0026C197.437 41.2506 197.854 44.3708 198.062 49.3632C198.271 54.1475 198.479 59.3478 198.687 64.9642C198.896 70.5806 199 75.9889 199 81.1893C199 86.1816 199 89.6138 199 91.4859ZM137.73 128.304C137.73 126.016 137.626 122.48 137.418 117.696C137.209 112.703 136.897 107.191 136.48 101.159C136.272 94.9182 135.959 88.5737 135.542 82.1253C135.125 75.4689 134.5 69.2285 133.667 63.4041C133.041 57.5797 132.312 52.5874 131.478 48.4271C130.645 44.0588 129.707 41.1466 128.665 39.6905C126.998 37.4024 124.497 36.0503 121.163 35.6343C117.828 35.0102 114.806 34.6982 112.097 34.6982C109.805 34.6982 106.47 34.9062 102.094 35.3223C97.9261 35.7383 93.5497 36.4663 88.9649 37.5064C84.3801 38.3384 80.1079 39.3785 76.1483 40.6266C72.1887 41.8747 69.3753 43.3308 67.7081 44.9949C65.2073 47.491 63.2275 52.4834 61.7687 59.9719C60.5183 67.2523 59.5805 75.2609 58.9553 83.9974C58.3301 92.734 57.9133 101.159 57.7049 109.271C57.7049 117.384 57.7049 123.416 57.7049 127.368C57.7049 129.656 57.8091 133.193 58.0175 137.977C58.2259 142.553 58.4343 147.858 58.6427 153.89C59.0595 159.714 59.4763 165.851 59.8931 172.299C60.5183 178.54 61.1435 184.468 61.7687 190.084C62.3939 195.493 63.0191 200.173 63.6443 204.125C64.4779 207.87 65.4157 210.262 66.4577 211.302C67.2913 212.134 68.4375 212.758 69.8963 213.174C71.5635 213.59 73.3349 213.902 75.2105 214.11C77.0861 214.318 78.8575 214.422 80.5247 214.422C82.1919 214.422 83.5465 214.422 84.5885 214.422C86.8809 214.422 89.6943 214.318 93.0287 214.11C96.5715 213.902 100.114 213.59 103.657 213.174C107.408 212.758 110.847 212.238 113.973 211.614C117.307 210.99 120.016 210.158 122.1 209.118C124.184 208.078 126.06 205.685 127.727 201.941C129.394 198.197 130.749 193.725 131.791 188.524C133.041 183.324 133.979 177.812 134.604 171.987C135.438 165.955 136.063 160.13 136.48 154.514C136.897 148.898 137.209 143.801 137.418 139.225C137.626 134.441 137.73 130.801 137.73 128.304Z" fill="#9BAB62"/>
<path d="M303.831 224C273.909 224 250.359 215.549 233.182 198.646C215.727 182.021 207 158.883 207 129.235C207 105.682 212.68 84.6228 224.039 66.0576C236.784 46.107 253.961 33.0837 275.571 26.9877C288.039 23.6626 302.584 22 319.208 22C322.81 22 326.55 22 330.429 22C334.584 22 339.017 22.2771 343.727 22.8313C346.221 23.9397 347.468 25.4637 347.468 27.4033C347.468 29.8971 346.082 31.144 343.312 31.144C342.203 31.144 340.957 31.144 339.571 31.144C338.463 31.144 337.216 31.0055 335.831 30.7284C334.169 30.4513 332.645 30.3128 331.26 30.3128C330.152 30.3128 329.182 30.3128 328.351 30.3128C300.368 30.3128 277.234 38.6255 258.948 55.251C240.385 72.1536 231.104 94.4595 231.104 122.169C231.104 131.036 232.074 139.764 234.013 148.354C235.952 156.667 239 164.702 243.156 172.461C254.515 192.966 274.048 203.218 301.753 203.218C325.303 203.218 344.836 195.875 360.351 181.189C376.42 165.949 384.455 146.968 384.455 124.247C384.455 102.08 375.866 84.4842 358.688 71.4609C344.835 60.3772 329.32 54.8354 312.143 54.8354C292.472 54.8354 282.636 62.7325 282.636 78.5268C282.636 96.2606 288.732 105.128 300.922 105.128C305.909 105.128 311.312 102.911 317.13 98.4774C319.9 96.2606 321.978 94.5981 323.364 93.4897C324.749 92.3814 325.442 91.8272 325.442 91.8272C327.935 91.8272 329.182 92.9355 329.182 95.1523C329.182 100.417 324.887 104.85 316.299 108.453C309.649 111.224 303 112.609 296.351 112.609C277.234 112.609 267.675 102.357 267.675 81.8519C267.675 58.8532 281.805 47.3539 310.065 47.3539C331.398 47.3539 350.377 53.5885 367 66.0576C385.009 79.358 395.26 96.2606 397.753 116.765C398.03 118.982 398.307 121.476 398.584 124.247C398.861 127.018 399 129.927 399 132.975C399 160.962 390.134 183.129 372.403 199.477C354.394 215.826 331.537 224 303.831 224Z" fill="#A9DEEB"/>
<path d="M465.458 156.401L534.074 68.0098C532.428 62.4484 530.899 58.0111 529.488 54.6979C528.077 51.2664 526.137 47.5982 523.667 43.6934C521.315 39.7885 518.375 36.8895 514.847 34.9962C511.32 33.103 507.263 32.1563 502.676 32.1563C476.453 32.1563 463.341 65.1108 463.341 131.02C463.341 139.421 464.046 147.881 465.458 156.401ZM540.601 91.9713L471.455 180.895C474.16 190.835 477.864 198.644 482.568 204.324C487.271 210.004 494.092 212.844 503.029 212.844C508.086 212.844 512.613 211.72 516.611 209.471C520.61 207.105 523.961 204.206 526.666 200.774C529.37 197.224 531.664 192.669 533.545 187.107C535.427 181.546 536.897 176.162 537.955 170.955C539.013 165.749 539.836 159.655 540.424 152.674C541.012 145.574 541.365 139.48 541.483 134.392C541.6 129.186 541.659 123.269 541.659 116.643C541.659 107.531 541.306 99.3076 540.601 91.9713ZM502.5 5C512.731 5 521.844 7.36657 529.841 12.0997C537.837 16.7145 544.246 22.7492 549.068 30.2039C553.889 37.5403 557.828 46.4149 560.886 56.8278C563.943 67.1224 566.06 77.3578 567.236 87.534C568.412 97.7102 569 108.537 569 120.015C569 200.005 547.01 240 503.029 240C492.798 240 483.685 237.811 475.688 233.433C467.809 229.055 461.401 223.316 456.462 216.216C451.64 208.998 447.642 200.419 444.467 190.48C441.292 180.54 439.057 170.482 437.764 160.306C436.588 150.13 436 139.303 436 127.825C436 119.66 436.294 111.732 436.882 104.041C437.47 96.2311 438.469 88.1848 439.881 79.9018C441.292 71.6188 443.115 63.9275 445.349 56.8278C447.583 49.6098 450.405 42.8059 453.816 36.4162C457.344 29.9081 461.342 24.4058 465.81 19.9094C470.397 15.2946 475.806 11.6855 482.038 9.08233C488.271 6.36078 495.092 5 502.5 5Z" fill="#F79628"/>
<path d="M639.5 121.5C639.5 92.7 641.7 69.9 646.1 53.1C650.5 36.1 657.6 24 667.4 16.8C677.4 9.59999 690.8 5.99998 707.6 5.99998C724.4 5.99998 737.6 9.49999 747.2 16.5C757 23.5 764 35.4 768.2 52.2C772.4 69 774.5 92.1 774.5 121.5C774.5 150.9 772.1 174 767.3 190.8C762.5 207.6 755.2 219.5 745.4 226.5C735.6 233.5 723 237 707.6 237C690.8 237 677.4 233.4 667.4 226.2C657.6 218.8 650.5 206.7 646.1 189.9C641.7 173.1 639.5 150.3 639.5 121.5ZM741.5 122.1C741.5 86.3 738.8 60.2 733.4 43.8C728 27.2 719.4 18.9 707.6 18.9C695.8 18.9 687.2 26.9 681.8 42.9C676.4 58.9 673.7 85.3 673.7 122.1C673.7 158.1 676.4 184 681.8 199.8C687.2 215.6 695.8 223.5 707.6 223.5C719.2 223.5 727.7 215.4 733.1 199.2C738.7 182.8 741.5 157.1 741.5 122.1Z" fill="#4B7746"/>
<path d="M922 206.667H955.333V240H922H888.667H855.333V206.667H888.667H922ZM955.333 206.667V173.333V140V106.667H922V140H888.667V173.333H855.333V206.667H822V173.333V140V106.667V73.3333V40H855.333V73.3333V106.667V140H888.667V106.667H922V73.3333H955.333V40H988.667V73.3333V106.667V140V173.333V206.667H955.333ZM955.333 40H922H888.667H855.333V6.66666H888.667H922H955.333V40Z" fill="#FDBECC"/>
<path d="M1041 239V7L1173 9.32896L1163.66 233.446L1041 239ZM1128.64 59.1328L1085.18 50.8919L1090.03 188.3L1123.61 184.897L1128.64 59.1328Z" fill="#4A76B2"/>
</g>
<defs>
<clipPath id="clip0_26_169">
<rect width="1252" height="245" fill="white"/>
</clipPath>
</defs>
</svg>
